<mxfile host="Electron" modified="2024-01-06T03:30:39.481Z" agent="Mozilla/5.0 (Windows NT 10.0; Win64; x64) AppleWebKit/537.36 (KHTML, like Gecko) draw.io/22.1.16 Chrome/120.0.6099.109 Electron/28.1.0 Safari/537.36" etag="1C2pydOE-IKBM2SsQwTV" version="22.1.16" type="device">
  <diagram name="Page-1" id="opalLX9WcuLTGMBFuhFz">
    <mxGraphModel dx="1098" dy="828" grid="1" gridSize="10" guides="1" tooltips="1" connect="1" arrows="1" fold="1" page="1" pageScale="1" pageWidth="850" pageHeight="1100" math="0" shadow="0">
      <root>
        <object label="" doc-ref="readme.md" type="Action" spec-ref="root-action.yml" page-element="true" id="0">
          <mxCell />
        </object>
        <mxCell id="1" parent="0" />
        <object label="Navigation" reference="name: navigation&#xa;comparator: right-down" id="6JPphqQHc771tzSaFOA8-2">
          <mxCell style="swimlane;whiteSpace=wrap;html=1;collapsible=0;" vertex="1" parent="1">
            <mxGeometry x="170" y="490" width="430" height="80" as="geometry" />
          </mxCell>
        </object>
        <object label="Action" type="Action" placeholders="1" spec="location: %id%/index.html" id="nav-action">
          <mxCell style="rounded=1;whiteSpace=wrap;html=1;" vertex="1" parent="6JPphqQHc771tzSaFOA8-2">
            <mxGeometry x="10" y="30" width="80" height="40" as="geometry" />
          </mxCell>
        </object>
        <object label="Source" type="Action" placeholders="1" spec="icon: fab fa-github&#xa;location: https://github.com/Nasdanika/html/blob/master/model/app.gen/src/test/java/org/nasdanika/html/model/app/gen/tests/TestActionSiteGenerator.java#L73" id="6JPphqQHc771tzSaFOA8-5">
          <mxCell style="rounded=1;whiteSpace=wrap;html=1;" vertex="1" parent="6JPphqQHc771tzSaFOA8-2">
            <mxGeometry x="100" y="30" width="80" height="40" as="geometry" />
          </mxCell>
        </object>
        <object label="Children" reference="name: children&#xa;comparator: right-down" id="6JPphqQHc771tzSaFOA8-8">
          <mxCell style="swimlane;whiteSpace=wrap;html=1;collapsible=0;" vertex="1" parent="1">
            <mxGeometry x="170" y="580" width="430" height="80" as="geometry" />
          </mxCell>
        </object>
        <object label="Sections" reference="name: sections&#xa;comparator: right-down" id="6JPphqQHc771tzSaFOA8-11">
          <mxCell style="swimlane;whiteSpace=wrap;html=1;collapsible=0;" vertex="1" parent="1">
            <mxGeometry x="170" y="670" width="430" height="80" as="geometry" />
          </mxCell>
        </object>
        <object label="Anonymous" reference="name: anonymous&#xa;comparator: right-down" id="6JPphqQHc771tzSaFOA8-12">
          <mxCell style="swimlane;whiteSpace=wrap;html=1;collapsible=0;" vertex="1" parent="1">
            <mxGeometry x="170" y="760" width="430" height="80" as="geometry" />
          </mxCell>
        </object>
        <object label="Child Action" type="Action" placeholders="1" spec="location: %id%/index.html" feature-map="container:&#xa;  other: &#xa;    children:&#xa;      path: 2&#xa;" id="6JPphqQHc771tzSaFOA8-13">
          <mxCell style="rounded=1;whiteSpace=wrap;html=1;" vertex="1" parent="1">
            <mxGeometry x="170" y="410" width="80" height="40" as="geometry" />
          </mxCell>
        </object>
        <object label="Navigation Action" type="Action" placeholders="1" spec="location: %id%/index.html" feature-map="container:&#xa;  other: &#xa;    navigation:&#xa;      path: 2&#xa;" id="6JPphqQHc771tzSaFOA8-14">
          <mxCell style="rounded=1;whiteSpace=wrap;html=1;" vertex="1" parent="1">
            <mxGeometry x="270" y="410" width="80" height="40" as="geometry" />
          </mxCell>
        </object>
        <object label="Section" type="Action" placeholders="1" spec="location: %id%/index.html" feature-map="container:&#xa;  other: &#xa;    sections:&#xa;      path: 2&#xa;" id="6JPphqQHc771tzSaFOA8-15">
          <mxCell style="rounded=1;whiteSpace=wrap;html=1;" vertex="1" parent="1">
            <mxGeometry x="370" y="410" width="80" height="40" as="geometry" />
          </mxCell>
        </object>
        <object label="Anonymous Action" type="Action" placeholders="1" spec="location: %id%/index.html" feature-map="container:&#xa;  other: &#xa;    anonymous:&#xa;      path: 2&#xa;" id="6JPphqQHc771tzSaFOA8-16">
          <mxCell style="rounded=1;whiteSpace=wrap;html=1;" vertex="1" parent="1">
            <mxGeometry x="470" y="410" width="80" height="40" as="geometry" />
          </mxCell>
        </object>
        <object label="Child Action" placeholders="1" type="Action" feature-map="container:&#xa;  other: &#xa;    children:&#xa;      path: 2&#xa;" spec="location: %id%/index.html" id="child-container-action">
          <mxCell style="swimlane;whiteSpace=wrap;html=1;collapsible=0;" vertex="1" parent="1">
            <mxGeometry x="30" y="70" width="200" height="150" as="geometry" />
          </mxCell>
        </object>
        <object label="Navigation Action" placeholders="1" type="Action" feature-map="container:&#xa;  other: &#xa;    navigation:&#xa;      path: 2&#xa;" spec="location: %id%/index.html" id="6JPphqQHc771tzSaFOA8-18">
          <mxCell style="swimlane;whiteSpace=wrap;html=1;collapsible=0;" vertex="1" parent="1">
            <mxGeometry x="240" y="70" width="200" height="150" as="geometry" />
          </mxCell>
        </object>
        <object label="Section" placeholders="1" type="Action" feature-map="container:&#xa;  other: &#xa;    sections:&#xa;      path: 2&#xa;" spec="location: %id%/index.html" id="6JPphqQHc771tzSaFOA8-19">
          <mxCell style="swimlane;whiteSpace=wrap;html=1;collapsible=0;" vertex="1" parent="1">
            <mxGeometry x="450" y="70" width="200" height="150" as="geometry" />
          </mxCell>
        </object>
        <object label="Anonymous" placeholders="1" type="Action" feature-map="container:&#xa;  other: &#xa;    anonymous:&#xa;      path: 2&#xa;" spec="location: %id%/index.html" id="6JPphqQHc771tzSaFOA8-20">
          <mxCell style="swimlane;whiteSpace=wrap;html=1;collapsible=0;" vertex="1" parent="1">
            <mxGeometry x="450" y="230" width="200" height="150" as="geometry" />
          </mxCell>
        </object>
        <object label="Action" placeholders="1" type="Action" spec="location: %id%/index.html" id="6JPphqQHc771tzSaFOA8-21">
          <mxCell style="swimlane;whiteSpace=wrap;html=1;collapsible=0;" vertex="1" parent="1">
            <mxGeometry x="30" y="230" width="200" height="150" as="geometry" />
          </mxCell>
        </object>
        <object label="Documented Action" type="Action" placeholders="1" spec="location: %id%/index.html" base-uri="%id%/" doc-ref="readme.md" id="6JPphqQHc771tzSaFOA8-22">
          <mxCell style="rounded=1;whiteSpace=wrap;html=1;" vertex="1" parent="1">
            <mxGeometry x="40" y="520" width="80" height="40" as="geometry" />
          </mxCell>
        </object>
      </root>
    </mxGraphModel>
  </diagram>
</mxfile>
